M48
INCH
T1C00.016
T2C00.028
T3C00.032
T4C00.035
T5C00.040
T6C00.070
T7C00.087
%
T001
X00730Y00377
T002
X00842Y00490
X00842Y00590
T003
X00842Y00115
X00942Y00115
T004
X00142Y00265
X00142Y00565
X00242Y00265
X00242Y00565
X00330Y00115
X00342Y00265
X00342Y00565
X00442Y00265
X00442Y00565
X00542Y00265
X00542Y00565
X00642Y00265
X00642Y00565
X00730Y00115
X00742Y00265
X00742Y00565
T005
X01187Y00365
X01197Y00265
X01197Y00465
T006
X00242Y00703
X00242Y00973
X00742Y00765
X00992Y00765
T007
X00101Y00099
X00101Y01049
X01201Y00099
X01201Y01049
M30
