%FSLAX23Y23*%
%MOIN*%
G04 EasyPC Gerber Version 15.0.4 Build 3016 *
%AMT20*0 Octagon Pad at angle 0*4,1,8,-0.01367,-0.03300,0.01367,-0.03300,0.03300,-0.01367,0.03300,0.01367,0.01367,0.03300,-0.01367,0.03300,-0.03300,0.01367,-0.03300,-0.01367,-0.01367,-0.03300,0*%
%ADD20T20*%
%ADD74O,0.10500X0.21000*%
%ADD70R,0.10500X0.10500*%
%ADD23C,0.01500*%
%ADD24C,0.03200*%
%ADD19C,0.05910*%
%ADD22C,0.06500*%
%ADD21C,0.07400*%
%ADD18C,0.09461*%
X0Y0D02*
D02*
D18*
X101Y99D03*
Y1049D03*
X1201Y99D03*
Y1049D03*
D02*
D19*
X142Y265D03*
Y565D03*
X242Y265D03*
Y565D03*
X342Y265D03*
Y565D03*
X442Y265D03*
Y565D03*
X542Y265D03*
Y565D03*
X642Y265D03*
Y565D03*
X742Y265D03*
Y565D03*
D02*
D70*
X242Y703D03*
Y973D03*
D02*
D20*
X842Y115D03*
X942D03*
D02*
D21*
X330D03*
X730D03*
X1187Y365D03*
X1197Y265D03*
Y465D03*
D02*
D22*
X842Y490D03*
Y590D03*
D02*
D23*
X242Y565D02*
Y415D01*
X142Y315*
Y265*
X242Y703D02*
Y565D01*
Y973D02*
Y703D01*
X342Y565D02*
Y440D01*
X405Y377*
X730*
X442Y265D02*
Y215D01*
X430Y202*
X155*
X142Y215*
Y265*
X742D02*
X680Y327D01*
X467*
X442Y302*
Y265*
X742Y565D02*
Y440D01*
X817Y365*
X1187*
X742Y765D02*
X380D01*
X317Y702*
X242Y703*
X742Y765D02*
X817D01*
X842Y740*
Y590*
X1197Y265D02*
X742D01*
D02*
D24*
X730Y377D03*
D02*
D74*
X742Y765D03*
X992D03*
X0Y0D02*
M02*
