%FSLAX23Y23*%
%MOIN*%
G04 EasyPC Gerber Version 15.0.4 Build 3016 *
%ADD17C,0.00100*%
%ADD11C,0.00320*%
%ADD14C,0.00400*%
%ADD13C,0.00500*%
%ADD15C,0.00600*%
%ADD12C,0.00787*%
%ADD16C,0.00800*%
%ADD10C,0.01000*%
X0Y0D02*
D02*
D10*
X822Y153D02*
G75*
G03X824Y73I70J-38D01*
G01*
X823Y75D02*
G75*
G03X953Y63I69J40D01*
G01*
X954Y166D02*
G75*
G03X822Y152I-61J-51D01*
G01*
X954Y65D02*
Y165D01*
X1100Y382D02*
Y345D01*
X1120Y365*
X1100Y382*
D02*
D11*
X330Y1020D02*
X342Y1050D01*
X355Y1020*
X335Y1032D02*
X350D01*
X370Y1020D02*
Y1050D01*
X385*
X390Y1047*
X392Y1045*
X395Y1040*
Y1030*
X392Y1025*
X390Y1022*
X385Y1020*
X370*
X410Y1022D02*
X415Y1020D01*
X422*
X427Y1022*
X430Y1027*
Y1030*
X427Y1035*
X422Y1037*
X410*
Y1050*
X430*
X457Y1020D02*
X462Y1022D01*
X467Y1027*
X470Y1035*
Y1042*
X467Y1047*
X462Y1050*
X457*
X452Y1047*
X450Y1042*
X452Y1037*
X457Y1035*
X462*
X467Y1037*
X470Y1042*
X490Y1022D02*
X495Y1020D01*
X502*
X507Y1022*
X510Y1027*
Y1030*
X507Y1035*
X502Y1037*
X490*
Y1050*
X510*
X587Y1035D02*
X592Y1032D01*
X595Y1027*
X592Y1022*
X587Y1020*
X570*
Y1050*
X587*
X592Y1047*
X595Y1042*
X592Y1037*
X587Y1035*
X570*
X610Y1020D02*
Y1040D01*
Y1032D02*
X612Y1037D01*
X617Y1040*
X622*
X627Y1037*
X670Y1022D02*
X667Y1020D01*
X662*
X657*
X652Y1022*
X650Y1027*
Y1035*
X652Y1037*
X657Y1040*
X662*
X667Y1037*
X670Y1035*
Y1032*
X667Y1030*
X662Y1027*
X657*
X652Y1030*
X650Y1032*
X690Y1037D02*
X695Y1040D01*
X702*
X707Y1037*
X710Y1032*
Y1025*
X707Y1022*
X702Y1020*
X697*
X692Y1022*
X690Y1025*
Y1027*
X692Y1030*
X697Y1032*
X702*
X707Y1030*
X710Y1027*
Y1025D02*
Y1020D01*
X730D02*
Y1050D01*
Y1030D02*
X737D01*
X750Y1040*
X737Y1030D02*
X750Y1020D01*
X770Y1027D02*
X772Y1022D01*
X777Y1020*
X782*
X787Y1022*
X790Y1027*
Y1032*
X787Y1037*
X782Y1040*
X777*
X772Y1037*
X770Y1032*
Y1027*
X810Y1040D02*
Y1027D01*
X812Y1022*
X817Y1020*
X822*
X827Y1022*
X830Y1027*
Y1040D02*
Y1020D01*
X855Y1040D02*
X865D01*
X860Y1045D02*
Y1022D01*
X862Y1020*
X865*
X867Y1022*
X930Y1050D02*
X942Y1020D01*
X955Y1050*
X975Y1020D02*
X985D01*
X980D02*
Y1050D01*
X975Y1045*
X1012Y1020D02*
X1015Y1022D01*
X1012Y1025*
X1010Y1022*
X1012Y1020*
X1052Y1022D02*
X1057Y1020D01*
X1062*
X1067Y1022*
X1070Y1027*
Y1042*
X1067Y1047*
X1062Y1050*
X1057*
X1052Y1047*
X1050Y1042*
Y1027*
X1052Y1022*
X1067Y1047*
X330Y1085D02*
Y1115D01*
Y1100D02*
X355D01*
Y1085D02*
Y1115D01*
X370Y1092D02*
X372Y1087D01*
X377Y1085*
X382*
X387Y1087*
X390Y1092*
Y1097*
X387Y1102*
X382Y1105*
X377*
X372Y1102*
X370Y1097*
Y1092*
X410D02*
X412Y1087D01*
X417Y1085*
X422*
X427Y1087*
X430Y1092*
Y1097*
X427Y1102*
X422Y1105*
X417*
X412Y1102*
X410Y1097*
Y1085D02*
Y1115D01*
X450Y1092D02*
X452Y1087D01*
X457Y1085*
X462*
X467Y1087*
X470Y1092*
Y1097*
X467Y1102*
X462Y1105*
X457*
X452Y1102*
X450Y1097*
Y1085D02*
Y1115D01*
X490Y1105D02*
X492Y1095D01*
X497Y1090*
X502*
X507Y1095*
X510Y1105*
X507Y1095D02*
X505Y1085D01*
X502Y1080*
X497Y1077*
X492Y1080*
X530Y1092D02*
X532Y1087D01*
X537Y1085*
X542*
X547Y1087*
X550Y1092*
Y1097*
X547Y1102*
X542Y1105*
X537*
X532Y1102*
X530Y1097*
Y1085D02*
Y1115D01*
X570Y1092D02*
X572Y1087D01*
X577Y1085*
X582*
X587Y1087*
X590Y1092*
Y1097*
X587Y1102*
X582Y1105*
X577*
X572Y1102*
X570Y1097*
Y1092*
X615Y1105D02*
X625D01*
X620Y1110D02*
Y1087D01*
X622Y1085*
X625*
X627Y1087*
X660Y1085D02*
Y1105D01*
Y1112D02*
X710Y1102*
X705Y1105D01*
X697*
X692Y1102*
X690Y1097*
Y1092*
X692Y1087*
X697Y1085*
X705*
X710Y1087*
X730D02*
X735Y1085D01*
X745*
X750Y1087*
Y1092*
X745Y1095*
X735*
X730Y1097*
Y1102*
X735Y1105*
X745*
X750Y1102*
X810Y1115D02*
X835Y1085D01*
X852Y1087D02*
X857Y1085D01*
X862*
X867Y1087*
X870Y1092*
Y1107*
X867Y1112*
X862Y1115*
X857*
X852Y1112*
X850Y1107*
Y1092*
X852Y1087*
X867Y1112*
X890Y1085D02*
X915Y1115D01*
X417Y427D02*
Y405D01*
X420Y400*
X425Y397*
X435*
X440Y400*
X442Y405*
Y427*
X462Y397D02*
X472D01*
X467D02*
Y427D01*
X462Y422*
X455Y815D02*
X457Y812D01*
X462Y810*
X467Y812*
X470Y815*
Y840*
X475*
X470D02*
X460D01*
X500Y810D02*
X510D01*
X505D02*
Y840D01*
X500Y835*
X492Y97D02*
Y127D01*
X510*
X515Y125*
X517Y120*
X515Y115*
X510Y112*
X492*
X510D02*
X517Y97D01*
X537D02*
X547D01*
X542D02*
Y127D01*
X537Y122*
X917Y540D02*
X920Y537D01*
X922Y532*
Y525*
X920Y520*
X917Y517*
X912Y515*
X902*
X897Y517*
X895Y520*
X892Y525*
Y532*
X895Y537*
X897Y540*
X922Y560D02*
Y570D01*
Y565D02*
X892D01*
X897Y560*
X1030Y265D02*
X1037D01*
Y262*
X1035Y257*
X1032Y255*
X1027Y252*
X1022*
X1017Y255*
X1015Y257*
X1012Y262*
Y272*
X1015Y277*
X1017Y280*
X1022Y282*
X1027*
X1032Y280*
X1035Y277*
X1037Y272*
X1052Y252D02*
Y282D01*
X1077Y252*
Y282*
X1092Y252D02*
Y282D01*
X1107*
X1112Y280*
X1115Y277*
X1117Y272*
Y262*
X1115Y257*
X1112Y255*
X1107Y252*
X1092*
X1012Y352D02*
Y382D01*
X1027*
X1032Y380*
X1035Y377*
X1037Y372*
Y362*
X1035Y357*
X1032Y355*
X1027Y352*
X1012*
X1052Y362D02*
Y372D01*
X1055Y377*
X1057Y380*
X1062Y382*
X1067*
X1072Y380*
X1075Y377*
X1077Y372*
Y362*
X1075Y357*
X1072Y355*
X1067Y352*
X1062*
X1057Y355*
X1055Y357*
X1052Y362*
X1012Y482D02*
X1025Y452D01*
X1037Y482*
X1077Y457D02*
X1075Y455D01*
X1070Y452*
X1062*
X1057Y455*
X1055Y457*
X1052Y462*
Y472*
X1055Y477*
X1057Y480*
X1062Y482*
X1070*
X1075Y480*
X1077Y477*
X1117Y457D02*
X1115Y455D01*
X1110Y452*
X1102*
X1097Y455*
X1095Y457*
X1092Y462*
Y472*
X1095Y477*
X1097Y480*
X1102Y482*
X1110*
X1115Y480*
X1117Y477*
X1000Y45D02*
X1030D01*
Y70*
Y85D02*
X1000D01*
Y110*
X1015Y105D02*
Y85D01*
X1030D02*
Y110D01*
Y125D02*
X1000D01*
Y140*
X1002Y145*
X1005Y147*
X1010Y150*
X1020*
X1025Y147*
X1027Y145*
X1030Y140*
Y125*
Y170D02*
Y180D01*
Y175D02*
X1000D01*
X1005Y170*
X1085Y40D02*
X1055D01*
Y65*
X1070Y60D02*
Y40D01*
X1085D02*
Y65D01*
Y80D02*
X1055D01*
Y97*
X1057Y102*
X1062Y105*
X1067Y102*
X1070Y97*
Y80*
Y97D02*
X1085Y105D01*
Y120D02*
X1055D01*
Y137*
X1057Y142*
X1062Y145*
X1067Y142*
X1070Y137*
Y120*
Y137D02*
X1085Y145D01*
X1075Y160D02*
X1065D01*
X1060Y162*
X1057Y165*
X1055Y170*
Y175*
X1057Y180*
X1060Y182*
X1065Y185*
X1075*
X1080Y182*
X1082Y180*
X1085Y175*
Y170*
X1082Y165*
X1080Y162*
X1075Y160*
X1085Y200D02*
X1055D01*
Y217*
X1057Y222*
X1062Y225*
X1067Y222*
X1070Y217*
Y200*
Y217D02*
X1085Y225D01*
X1155Y540D02*
X1157Y537D01*
X1162Y535*
X1167Y537*
X1170Y540*
Y565*
X1175*
X1170D02*
X1160D01*
X1215Y535D02*
X1195D01*
X1212Y552*
X1215Y557*
X1212Y562*
X1207Y565*
X1200*
X1195Y562*
X1172Y652D02*
X1142D01*
Y670*
X1145Y675*
X1150Y677*
X1155Y675*
X1157Y670*
Y652*
Y670D02*
X1172Y677D01*
X1170Y712D02*
X1172Y710D01*
Y705*
Y700*
X1170Y695*
X1165Y692*
X1157*
X1155Y695*
X1152Y700*
Y705*
X1155Y710*
X1157Y712*
X1160*
X1162Y710*
X1165Y705*
Y700*
X1162Y695*
X1160Y692*
Y752D02*
X1155Y750D01*
X1152Y745*
Y740*
X1155Y735*
X1160Y732*
X1165*
X1170Y735*
X1172Y740*
Y745*
X1170Y750*
X1165Y752*
X1172D02*
X1142D01*
X1162Y812D02*
Y832D01*
X1235Y665D02*
X1220D01*
X1205Y652*
X1220Y665D02*
X1205Y677D01*
X1232Y712D02*
X1235Y710D01*
Y705*
Y700*
X1232Y695*
X1227Y692*
X1220*
X1217Y695*
X1215Y700*
Y705*
X1217Y710*
X1220Y712*
X1222*
X1225Y710*
X1227Y705*
Y700*
X1225Y695*
X1222Y692*
X1235Y745D02*
Y742D01*
X1205*
X1235Y785D02*
Y782D01*
X1205*
X1227Y812D02*
X1232Y815D01*
X1235Y820*
Y825*
X1232Y830*
X1227Y832*
X1222*
X1217Y830*
X1215Y825*
Y820*
X1217Y815*
X1222Y812*
X1227*
X1215Y852D02*
X1232D01*
X1235Y855*
Y860*
X1232Y862*
X1225*
X1232D02*
X1235Y865D01*
Y870*
X1232Y872*
X1215*
X1225Y932D02*
Y952D01*
X1235Y942D02*
X1215D01*
D02*
D12*
X792Y215D02*
Y615D01*
X92*
Y440*
G75*
G02Y390J-25*
G01*
Y215*
X792*
D02*
D13*
X162Y973D02*
X52D01*
Y703*
X162*
X422D02*
X662D01*
X422Y973D02*
X692D01*
X742D02*
X1072D01*
Y703*
X742*
X790Y183D02*
X819D01*
X804Y167D02*
Y198D01*
D02*
D14*
X752Y930D02*
Y893D01*
X767D02*
X736D01*
X717Y918D02*
X692D01*
X705Y930D02*
Y905D01*
X1002Y930D02*
Y893D01*
X1017D02*
X986D01*
X967Y918D02*
X942D01*
D02*
D15*
X845Y78D02*
G75*
G03X940I47J37D01*
G01*
X846Y153D02*
G75*
G03X847Y75I46J-38D01*
G01*
X892Y75D02*
G75*
G03X932Y115J40D01*
G01*
X892Y90D02*
G75*
G03X917Y115J25D01*
G01*
X892Y140D02*
G75*
G03X867Y115J-25D01*
G01*
X892Y155D02*
G75*
G03X852Y115J-40D01*
G01*
X938Y76D02*
G75*
G03X938Y154I-46J38D01*
G01*
X941Y150D02*
G75*
G03X844Y151I-49J-35D01*
G01*
D02*
D16*
X406Y162D02*
X654D01*
Y67*
X406*
Y162*
X817Y540D02*
X867D01*
X1142Y440D02*
Y490D01*
X1167Y515*
X1217*
X1242Y490*
Y440*
X1217Y415*
X1242Y390*
Y340*
X1217Y315*
X1242Y290*
Y240*
X1217Y215*
X1167*
X1142Y240*
Y290*
X1167Y315*
X1142Y340*
Y390*
X1167Y415*
X1142Y440*
D02*
D17*
X950Y390D02*
G75*
G03X947Y396I-38J-16D01*
G01*
X959Y411*
X949Y421*
X934Y409*
G75*
G03X921Y414I-22J-34*
G01*
X919Y433*
X905*
X903Y414*
G75*
G03X891Y409I9J-40*
G01*
X876Y421*
X866Y411*
X878Y396*
G75*
G03X873Y384I34J-22*
G01*
X854Y382*
Y368*
X873Y366*
G75*
G03X878Y353I40J9*
G01*
X866Y338*
X876Y328*
X891Y340*
G75*
G03X903Y335I22J34*
G01*
X905Y316*
X919*
X921Y335*
G75*
G03X934Y340I-9J40*
G01*
X949Y328*
X959Y338*
X947Y353*
G75*
G03X950Y359I-34J22*
G01*
X929Y368*
G75*
G02X912Y356I-17J7*
G01*
G75*
G02X929Y382I0J18*
G01*
X950Y390*
G36*
G75*
G03X947Y396I-38J-16*
G01*
X959Y411*
X949Y421*
X934Y409*
G75*
G03X921Y414I-22J-34*
G01*
X919Y433*
X905*
X903Y414*
G75*
G03X891Y409I9J-40*
G01*
X876Y421*
X866Y411*
X878Y396*
G75*
G03X873Y384I34J-22*
G01*
X854Y382*
Y368*
X873Y366*
G75*
G03X878Y353I40J9*
G01*
X866Y338*
X876Y328*
X891Y340*
G75*
G03X903Y335I22J34*
G01*
X905Y316*
X919*
X921Y335*
G75*
G03X934Y340I-9J40*
G01*
X949Y328*
X959Y338*
X947Y353*
G75*
G03X950Y359I-34J22*
G01*
X929Y368*
G75*
G02X912Y356I-17J7*
G01*
G75*
G02X929Y382I0J18*
G01*
X950Y390*
G37*
X1182Y275D02*
Y255D01*
X1202*
Y275*
X1182*
G36*
Y255*
X1202*
Y275*
X1182*
G37*
Y375D02*
Y355D01*
X1202*
Y375*
X1182*
G36*
Y355*
X1202*
Y375*
X1182*
G37*
Y475D02*
Y455D01*
X1202*
Y475*
X1182*
G36*
Y455*
X1202*
Y475*
X1182*
G37*
X0Y0D02*
M02*
